# xmcd
#
# Track frame offsets:
#	150
#	12090
#	26282
#	47037
#	66539
#	78567
#	95924
#	108502
#	127089
#	141977
#	158637
#	175879
#	189937
#	205270
#	229781
#	247608
#	265301
#	281089
#	296581
#	312246
#
# Disc length: 4364 seconds
#
# Revision: 0
# Processed by: cddbd v1.5.1PL0 Copyright (c) Steve Scherf et al.
# Submitted via: dBpowerAMP V4.0
#
DISCID=21110a14
DTITLE=CAMILO SESTO - CAMIL0 SESTO
DYEAR=2004
DGENRE=Blues
TTITLE0=fresa salvaje
TTITLE1=quien sera
TTITLE2=has nacido libre
TTITLE3=hablame
TTITLE4=llueve sobre mojado
TTITLE5=vivir sin ti
TTITLE6=melina
TTITLE7=algo de mi
TTITLE8=jamas
TTITLE9=quieres ser mi amante
TTITLE10=solo tu
TTITLE11=con el viento a tu favor
TTITLE12=si tu te vas
TTITLE13=callados
TTITLE14=perdoname
TTITLE15=la culpa ha sido mia
TTITLE16=piel de angel
TTITLE17=mi mundo tu
TTITLE18=amor no me ignores
TTITLE19=todo por nada
EXTD=EL GRAN IDOLO ROMANTICO: CAMILO SESTO
EXTT0=
EXTT1=
EXTT2=
EXTT3=
EXTT4=
EXTT5=
EXTT6=
EXTT7=
EXTT8=
EXTT9=
EXTT10=
EXTT11=
EXTT12=
EXTT13=
EXTT14=
EXTT15=
EXTT16=
EXTT17=
EXTT18=
EXTT19=
PLAYORDER=
